<svg width="64" height="64" viewBox="0 0 64 64" fill="none" xmlns="http://www.w3.org/2000/svg">
  <rect width="64" height="64" rx="18" fill="#F4F7EF"/>
  <path d="M16 42C16 30.9543 24.9543 22 36 22H44C48.4183 22 52 25.5817 52 30C52 41.0457 43.0457 50 32 50H24C19.5817 50 16 46.4183 16 42Z" fill="#D98C57"/>
  <path d="M24 27C21.5 31 20.5 35 21 40" stroke="#FFF3C8" stroke-width="4" stroke-linecap="round"/>
  <path d="M33 23C30.5 28 29.5 34 30 42" stroke="#FFF3C8" stroke-width="4" stroke-linecap="round"/>
  <path d="M42 23C40 28 38.5 34 38 42" stroke="#FFF3C8" stroke-width="4" stroke-linecap="round"/>
  <path d="M16 45C20 49 25.3333 51 32 51C40 51 46 48 50 42" stroke="#5A6B47" stroke-width="3" stroke-linecap="round"/>
</svg>
